<svg version="1.1" id="Layer_1" xmlns="http://www.w3.org/2000/svg" xmlns:xlink="http://www.w3.org/1999/xlink" x="0px" y="0px"
	 width="100%" viewBox="0 0 512 512" enable-background="new 0 0 512 512" xml:space="preserve">
<path fill="none" opacity="1.000000" stroke="none" 
	d="
M1.000000,299.000000 
	C1.000000,199.715073 1.000000,100.430138 1.000000,1.072603 
	C171.666656,1.072603 342.333313,1.072603 513.000000,1.072603 
	C513.000000,30.090940 513.000000,59.076813 512.531372,88.531342 
	C447.818359,89.000000 383.574036,89.000000 318.830597,89.000000 
	C318.830597,159.316971 318.830597,229.023468 318.830597,299.000000 
	C212.553192,299.000000 106.776596,299.000000 1.000000,299.000000 
z"/>
<path fill="#6366E9" opacity="1.000000" stroke="none" 
	d="
M1.000000,299.468658 
	C106.776596,299.000000 212.553192,299.000000 318.830597,299.000000 
	C318.830597,229.023468 318.830597,159.316971 318.830597,89.000000 
	C383.574036,89.000000 447.818359,89.000000 512.531372,89.000000 
	C513.000000,159.687561 513.000000,230.375122 512.531372,301.531342 
	C448.479645,302.000000 384.896606,302.000000 321.000000,302.000000 
	C321.000000,372.751709 321.000000,442.875854 321.000000,513.000000 
	C214.420761,513.000000 107.841522,513.000000 1.000000,513.000000 
	C1.000000,441.979309 1.000000,370.958313 1.000000,299.468658 
z"/>
</svg>