<svg version="1.1" id="Layer_1" xmlns="http://www.w3.org/2000/svg" xmlns:xlink="http://www.w3.org/1999/xlink" x="0px" y="0px"
	 width="100%" viewBox="0 0 512 63" enable-background="new 0 0 512 63" xml:space="preserve">
<path fill="none" opacity="1.000000" stroke="none" 
	d="
M1.000000,31.000000 
	C1.000000,21.004086 1.000000,11.008169 1.000000,1.009191 
	C171.592880,1.006127 342.185760,1.006127 512.889282,1.006127 
	C512.889282,21.917105 512.889282,42.834991 512.889282,64.000000 
	C357.979187,64.000000 202.958252,64.000000 47.256958,63.569969 
	C46.576595,53.221897 46.576595,43.303852 46.576595,32.872925 
	C56.265854,32.872925 64.996887,32.872925 73.623779,32.872925 
	C73.623779,22.623728 73.623779,12.901730 73.623779,3.250791 
	C64.309532,3.250791 55.373825,3.250791 45.918976,3.250791 
	C45.918976,12.550997 45.918976,21.615910 45.918976,31.000000 
	C30.598898,31.000000 15.799449,31.000000 1.000000,31.000000 
z"/>
<path fill="#6366E9" opacity="1.000000" stroke="none" 
	d="
M1.000000,31.468658 
	C15.799449,31.000000 30.598898,31.000000 45.918976,31.000000 
	C45.918976,21.615910 45.918976,12.550997 45.918976,3.250791 
	C55.373825,3.250791 64.309532,3.250791 73.623779,3.250791 
	C73.623779,12.901730 73.623779,22.623728 73.623779,32.872925 
	C64.996887,32.872925 56.265854,32.872925 46.576595,32.872925 
	C46.576595,43.303852 46.576595,53.221897 46.788300,63.569969 
	C31.752085,64.000000 16.504168,64.000000 1.000000,64.000000 
	C1.000000,53.313801 1.000000,42.625557 1.000000,31.468658 
z"/>
</svg>