<svg xmlns="http://www.w3.org/2000/svg" xmlns:xlink="http://www.w3.org/1999/xlink" width="512" zoomAndPan="magnify" viewBox="0 25 365 50" height="75" preserveAspectRatio="xMidYMid meet" version="1.0">
    <defs>
        <g/>
        <clipPath id="047ea01367">
            <path d="M 33.355469 30.828125 L 52.671875 30.828125 L 52.671875 52.050781 L 33.355469 52.050781 Z M 33.355469 30.828125 " clip-rule="nonzero"/>
        </clipPath>
        <clipPath id="db3e910e21">
            <path d="M 1.285156 51.121094 L 33.355469 51.121094 L 33.355469 73.453125 L 1.285156 73.453125 Z M 1.285156 51.121094 " clip-rule="nonzero"/>
        </clipPath>
    </defs>
    <g fill="var(--color-svg-fill)" fill-opacity="1">
        <g transform="translate(56.138098, 72.913992)">
            <g>
                <path d="M 9.234375 0 L 1.375 0 L 15.671875 -40.640625 L 24.765625 -40.640625 L 39.09375 0 L 31.234375 0 L 20.390625 -32.3125 L 20.0625 -32.3125 Z M 9.484375 -15.9375 L 30.921875 -15.9375 L 30.921875 -10.015625 L 9.484375 -10.015625 Z M 9.484375 -15.9375 "/>
            </g>
        </g>
    </g>
    <g fill="var(--color-svg-fill)" fill-opacity="1">
        <g transform="translate(96.590981, 72.913992)">
            <g>
                <path d="M 23.125 -12.828125 L 23.125 -30.484375 L 30.3125 -30.484375 L 30.3125 0 L 23.34375 0 L 23.34375 -5.421875 L 23.015625 -5.421875 C 22.328125 -3.710938 21.195312 -2.316406 19.625 -1.234375 C 18.0625 -0.148438 16.140625 0.390625 13.859375 0.390625 C 11.859375 0.390625 10.09375 -0.0507812 8.5625 -0.9375 C 7.03125 -1.832031 5.832031 -3.132812 4.96875 -4.84375 C 4.113281 -6.5625 3.6875 -8.640625 3.6875 -11.078125 L 3.6875 -30.484375 L 10.875 -30.484375 L 10.875 -12.1875 C 10.875 -10.25 11.398438 -8.710938 12.453125 -7.578125 C 13.515625 -6.441406 14.90625 -5.875 16.625 -5.875 C 17.6875 -5.875 18.710938 -6.128906 19.703125 -6.640625 C 20.703125 -7.160156 21.519531 -7.929688 22.15625 -8.953125 C 22.800781 -9.984375 23.125 -11.273438 23.125 -12.828125 Z M 23.125 -12.828125 "/>
            </g>
        </g>
    </g>
    <g fill="var(--color-svg-fill)" fill-opacity="1">
        <g transform="translate(130.592844, 72.913992)">
            <g>
                <path d="M 27.78125 -22.421875 L 21.234375 -21.71875 C 21.046875 -22.375 20.722656 -22.992188 20.265625 -23.578125 C 19.816406 -24.160156 19.207031 -24.628906 18.4375 -24.984375 C 17.664062 -25.347656 16.726562 -25.53125 15.625 -25.53125 C 14.125 -25.53125 12.867188 -25.203125 11.859375 -24.546875 C 10.847656 -23.898438 10.347656 -23.0625 10.359375 -22.03125 C 10.347656 -21.144531 10.675781 -20.421875 11.34375 -19.859375 C 12.007812 -19.304688 13.117188 -18.851562 14.671875 -18.5 L 19.875 -17.390625 C 22.75 -16.765625 24.890625 -15.773438 26.296875 -14.421875 C 27.710938 -13.078125 28.425781 -11.3125 28.4375 -9.125 C 28.425781 -7.207031 27.867188 -5.515625 26.765625 -4.046875 C 25.660156 -2.585938 24.128906 -1.445312 22.171875 -0.625 C 20.210938 0.1875 17.960938 0.59375 15.421875 0.59375 C 11.691406 0.59375 8.6875 -0.1875 6.40625 -1.75 C 4.132812 -3.320312 2.78125 -5.507812 2.34375 -8.3125 L 9.34375 -8.984375 C 9.664062 -7.609375 10.34375 -6.570312 11.375 -5.875 C 12.40625 -5.175781 13.75 -4.828125 15.40625 -4.828125 C 17.113281 -4.828125 18.484375 -5.175781 19.515625 -5.875 C 20.554688 -6.570312 21.078125 -7.4375 21.078125 -8.46875 C 21.078125 -9.34375 20.742188 -10.0625 20.078125 -10.625 C 19.410156 -11.195312 18.375 -11.640625 16.96875 -11.953125 L 11.765625 -13.046875 C 8.847656 -13.648438 6.6875 -14.675781 5.28125 -16.125 C 3.875 -17.570312 3.179688 -19.410156 3.203125 -21.640625 C 3.179688 -23.515625 3.691406 -25.140625 4.734375 -26.515625 C 5.773438 -27.898438 7.222656 -28.972656 9.078125 -29.734375 C 10.941406 -30.503906 13.085938 -30.890625 15.515625 -30.890625 C 19.085938 -30.890625 21.898438 -30.125 23.953125 -28.59375 C 26.015625 -27.070312 27.289062 -25.015625 27.78125 -22.421875 Z M 27.78125 -22.421875 "/>
            </g>
        </g>
    </g>
    <g fill="var(--color-svg-fill)" fill-opacity="1">
        <g transform="translate(161.279878, 72.913992)">
            <g>
                <path d="M 3.6875 0 L 3.6875 -30.484375 L 10.5625 -30.484375 L 10.5625 -25.3125 L 10.921875 -25.3125 C 11.554688 -27.050781 12.609375 -28.414062 14.078125 -29.40625 C 15.546875 -30.394531 17.296875 -30.890625 19.328125 -30.890625 C 21.390625 -30.890625 23.128906 -30.390625 24.546875 -29.390625 C 25.972656 -28.390625 26.976562 -27.03125 27.5625 -25.3125 L 27.890625 -25.3125 C 28.554688 -27 29.691406 -28.347656 31.296875 -29.359375 C 32.910156 -30.378906 34.820312 -30.890625 37.03125 -30.890625 C 39.84375 -30.890625 42.132812 -30 43.90625 -28.21875 C 45.675781 -26.445312 46.5625 -23.863281 46.5625 -20.46875 L 46.5625 0 L 39.359375 0 L 39.359375 -19.34375 C 39.359375 -21.238281 38.851562 -22.625 37.84375 -23.5 C 36.84375 -24.382812 35.613281 -24.828125 34.15625 -24.828125 C 32.425781 -24.828125 31.070312 -24.285156 30.09375 -23.203125 C 29.125 -22.128906 28.640625 -20.734375 28.640625 -19.015625 L 28.640625 0 L 21.59375 0 L 21.59375 -19.65625 C 21.59375 -21.226562 21.117188 -22.484375 20.171875 -23.421875 C 19.222656 -24.359375 17.988281 -24.828125 16.46875 -24.828125 C 15.4375 -24.828125 14.5 -24.566406 13.65625 -24.046875 C 12.8125 -23.523438 12.132812 -22.789062 11.625 -21.84375 C 11.125 -20.894531 10.875 -19.789062 10.875 -18.53125 L 10.875 0 Z M 3.6875 0 "/>
            </g>
        </g>
    </g>
    <g fill="var(--color-svg-fill)" fill-opacity="1">
        <g transform="translate(211.458935, 72.913992)">
            <g>
                <path d="M 17.1875 0.59375 C 14.132812 0.59375 11.5 -0.0390625 9.28125 -1.3125 C 7.0625 -2.59375 5.351562 -4.40625 4.15625 -6.75 C 2.96875 -9.101562 2.375 -11.875 2.375 -15.0625 C 2.375 -18.195312 2.972656 -20.953125 4.171875 -23.328125 C 5.367188 -25.703125 7.046875 -27.554688 9.203125 -28.890625 C 11.359375 -30.222656 13.894531 -30.890625 16.8125 -30.890625 C 18.6875 -30.890625 20.460938 -30.585938 22.140625 -29.984375 C 23.816406 -29.378906 25.296875 -28.445312 26.578125 -27.1875 C 27.867188 -25.9375 28.882812 -24.335938 29.625 -22.390625 C 30.375 -20.453125 30.75 -18.148438 30.75 -15.484375 L 30.75 -13.28125 L 5.75 -13.28125 L 5.75 -18.125 L 23.859375 -18.125 C 23.847656 -19.5 23.550781 -20.722656 22.96875 -21.796875 C 22.382812 -22.878906 21.570312 -23.726562 20.53125 -24.34375 C 19.488281 -24.96875 18.28125 -25.28125 16.90625 -25.28125 C 15.4375 -25.28125 14.144531 -24.925781 13.03125 -24.21875 C 11.925781 -23.507812 11.066406 -22.582031 10.453125 -21.4375 C 9.835938 -20.300781 9.519531 -19.050781 9.5 -17.6875 L 9.5 -13.453125 C 9.5 -11.679688 9.820312 -10.160156 10.46875 -8.890625 C 11.125 -7.628906 12.03125 -6.664062 13.1875 -6 C 14.351562 -5.332031 15.71875 -5 17.28125 -5 C 18.332031 -5 19.28125 -5.144531 20.125 -5.4375 C 20.96875 -5.738281 21.703125 -6.179688 22.328125 -6.765625 C 22.953125 -7.347656 23.421875 -8.070312 23.734375 -8.9375 L 30.453125 -8.171875 C 30.023438 -6.398438 29.21875 -4.851562 28.03125 -3.53125 C 26.851562 -2.21875 25.34375 -1.203125 23.5 -0.484375 C 21.65625 0.234375 19.550781 0.59375 17.1875 0.59375 Z M 17.1875 0.59375 "/>
            </g>
        </g>
    </g>
    <g fill="var(--color-svg-fill)" fill-opacity="1">
        <g transform="translate(244.587424, 72.913992)">
            <g>
                <path d="M 18.921875 -30.484375 L 18.921875 -24.921875 L 1.390625 -24.921875 L 1.390625 -30.484375 Z M 5.71875 -37.796875 L 12.90625 -37.796875 L 12.90625 -9.171875 C 12.90625 -8.203125 13.050781 -7.460938 13.34375 -6.953125 C 13.644531 -6.441406 14.039062 -6.09375 14.53125 -5.90625 C 15.019531 -5.726562 15.5625 -5.640625 16.15625 -5.640625 C 16.601562 -5.640625 17.015625 -5.671875 17.390625 -5.734375 C 17.773438 -5.796875 18.066406 -5.859375 18.265625 -5.921875 L 19.46875 -0.296875 C 19.082031 -0.160156 18.535156 -0.015625 17.828125 0.140625 C 17.117188 0.296875 16.257812 0.390625 15.25 0.421875 C 13.445312 0.472656 11.820312 0.195312 10.375 -0.40625 C 8.9375 -1.007812 7.796875 -1.945312 6.953125 -3.21875 C 6.117188 -4.488281 5.707031 -6.078125 5.71875 -7.984375 Z M 5.71875 -37.796875 "/>
            </g>
        </g>
    </g>
    <g fill="var(--color-svg-fill)" fill-opacity="1">
        <g transform="translate(265.826179, 72.913992)">
            <g>
                <path d="M 3.6875 0 L 3.6875 -30.484375 L 10.65625 -30.484375 L 10.65625 -25.40625 L 10.96875 -25.40625 C 11.53125 -27.164062 12.488281 -28.523438 13.84375 -29.484375 C 15.195312 -30.441406 16.75 -30.921875 18.5 -30.921875 C 18.894531 -30.921875 19.335938 -30.90625 19.828125 -30.875 C 20.328125 -30.84375 20.742188 -30.789062 21.078125 -30.71875 L 21.078125 -24.109375 C 20.773438 -24.222656 20.296875 -24.320312 19.640625 -24.40625 C 18.984375 -24.488281 18.351562 -24.53125 17.75 -24.53125 C 16.4375 -24.53125 15.257812 -24.25 14.21875 -23.6875 C 13.175781 -23.125 12.359375 -22.347656 11.765625 -21.359375 C 11.171875 -20.367188 10.875 -19.222656 10.875 -17.921875 L 10.875 0 Z M 3.6875 0 "/>
            </g>
        </g>
    </g>
    <g fill="var(--color-svg-fill)" fill-opacity="1">
        <g transform="translate(287.99786, 72.913992)">
            <g>
                <path d="M 3.6875 0 L 3.6875 -30.484375 L 10.875 -30.484375 L 10.875 0 Z M 7.296875 -34.8125 C 6.160156 -34.8125 5.179688 -35.191406 4.359375 -35.953125 C 3.546875 -36.710938 3.140625 -37.628906 3.140625 -38.703125 C 3.140625 -39.785156 3.546875 -40.707031 4.359375 -41.46875 C 5.179688 -42.226562 6.160156 -42.609375 7.296875 -42.609375 C 8.453125 -42.609375 9.4375 -42.226562 10.25 -41.46875 C 11.0625 -40.707031 11.46875 -39.785156 11.46875 -38.703125 C 11.46875 -37.628906 11.0625 -36.710938 10.25 -35.953125 C 9.4375 -35.191406 8.453125 -34.8125 7.296875 -34.8125 Z M 7.296875 -34.8125 "/>
            </g>
        </g>
    </g>
    <g fill="var(--color-svg-fill)" fill-opacity="1">
        <g transform="translate(302.567252, 72.913992)">
            <g>
                <path d="M 16.984375 0.59375 C 13.941406 0.59375 11.332031 -0.0703125 9.15625 -1.40625 C 6.976562 -2.738281 5.300781 -4.585938 4.125 -6.953125 C 2.957031 -9.316406 2.375 -12.039062 2.375 -15.125 C 2.375 -18.21875 2.96875 -20.953125 4.15625 -23.328125 C 5.351562 -25.703125 7.039062 -27.554688 9.21875 -28.890625 C 11.394531 -30.222656 13.972656 -30.890625 16.953125 -30.890625 C 19.421875 -30.890625 21.609375 -30.429688 23.515625 -29.515625 C 25.429688 -28.609375 26.957031 -27.332031 28.09375 -25.6875 C 29.238281 -24.039062 29.890625 -22.117188 30.046875 -19.921875 L 23.1875 -19.921875 C 22.90625 -21.390625 22.242188 -22.617188 21.203125 -23.609375 C 20.171875 -24.597656 18.785156 -25.09375 17.046875 -25.09375 C 15.578125 -25.09375 14.285156 -24.695312 13.171875 -23.90625 C 12.066406 -23.113281 11.207031 -21.984375 10.59375 -20.515625 C 9.976562 -19.046875 9.671875 -17.289062 9.671875 -15.25 C 9.671875 -13.164062 9.972656 -11.378906 10.578125 -9.890625 C 11.179688 -8.398438 12.035156 -7.253906 13.140625 -6.453125 C 14.253906 -5.660156 15.554688 -5.265625 17.046875 -5.265625 C 18.109375 -5.265625 19.054688 -5.460938 19.890625 -5.859375 C 20.734375 -6.265625 21.4375 -6.847656 22 -7.609375 C 22.570312 -8.378906 22.96875 -9.316406 23.1875 -10.421875 L 30.046875 -10.421875 C 29.878906 -8.265625 29.242188 -6.351562 28.140625 -4.6875 C 27.046875 -3.03125 25.550781 -1.734375 23.65625 -0.796875 C 21.757812 0.128906 19.535156 0.59375 16.984375 0.59375 Z M 16.984375 0.59375 "/>
            </g>
        </g>
    </g>
    <g fill="var(--color-svg-fill)" fill-opacity="1">
        <g transform="translate(334.842212, 72.913992)">
            <g>
                <path d="M 27.78125 -22.421875 L 21.234375 -21.71875 C 21.046875 -22.375 20.722656 -22.992188 20.265625 -23.578125 C 19.816406 -24.160156 19.207031 -24.628906 18.4375 -24.984375 C 17.664062 -25.347656 16.726562 -25.53125 15.625 -25.53125 C 14.125 -25.53125 12.867188 -25.203125 11.859375 -24.546875 C 10.847656 -23.898438 10.347656 -23.0625 10.359375 -22.03125 C 10.347656 -21.144531 10.675781 -20.421875 11.34375 -19.859375 C 12.007812 -19.304688 13.117188 -18.851562 14.671875 -18.5 L 19.875 -17.390625 C 22.75 -16.765625 24.890625 -15.773438 26.296875 -14.421875 C 27.710938 -13.078125 28.425781 -11.3125 28.4375 -9.125 C 28.425781 -7.207031 27.867188 -5.515625 26.765625 -4.046875 C 25.660156 -2.585938 24.128906 -1.445312 22.171875 -0.625 C 20.210938 0.1875 17.960938 0.59375 15.421875 0.59375 C 11.691406 0.59375 8.6875 -0.1875 6.40625 -1.75 C 4.132812 -3.320312 2.78125 -5.507812 2.34375 -8.3125 L 9.34375 -8.984375 C 9.664062 -7.609375 10.34375 -6.570312 11.375 -5.875 C 12.40625 -5.175781 13.75 -4.828125 15.40625 -4.828125 C 17.113281 -4.828125 18.484375 -5.175781 19.515625 -5.875 C 20.554688 -6.570312 21.078125 -7.4375 21.078125 -8.46875 C 21.078125 -9.34375 20.742188 -10.0625 20.078125 -10.625 C 19.410156 -11.195312 18.375 -11.640625 16.96875 -11.953125 L 11.765625 -13.046875 C 8.847656 -13.648438 6.6875 -14.675781 5.28125 -16.125 C 3.875 -17.570312 3.179688 -19.410156 3.203125 -21.640625 C 3.179688 -23.515625 3.691406 -25.140625 4.734375 -26.515625 C 5.773438 -27.898438 7.222656 -28.972656 9.078125 -29.734375 C 10.941406 -30.503906 13.085938 -30.890625 15.515625 -30.890625 C 19.085938 -30.890625 21.898438 -30.125 23.953125 -28.59375 C 26.015625 -27.070312 27.289062 -25.015625 27.78125 -22.421875 Z M 27.78125 -22.421875 "/>
            </g>
        </g>
    </g>
    <g clip-path="url(#047ea01367)">
        <path fill="#6366e9" d="M 33.355469 30.828125 L 52.671875 30.828125 L 52.671875 52.03125 L 33.355469 52.03125 Z M 33.355469 30.828125 " fill-opacity="1" fill-rule="nonzero"/>
    </g>
    <g clip-path="url(#db3e910e21)">
        <path fill="#6366e9" d="M 1.285156 51.121094 L 33.390625 51.121094 L 33.390625 73.453125 L 1.285156 73.453125 Z M 1.285156 51.121094 " fill-opacity="1" fill-rule="nonzero"/>
    </g>
</svg>
