<svg version="1.1" id="Layer_1" xmlns="http://www.w3.org/2000/svg" xmlns:xlink="http://www.w3.org/1999/xlink" x="0px" y="0px"
	 width="100%" viewBox="0 0 512 63" enable-background="new 0 0 512 63" xml:space="preserve">
<path fill="none" opacity="1.000000" stroke="none" 
	d="
M484.000000,64.000008 
	C474.645782,64.000000 465.291534,64.000000 455.176178,63.686081 
	C455.367767,62.886368 456.288544,62.319885 457.278473,61.927990 
	C463.254395,59.562195 467.475159,52.734921 466.351044,47.106762 
	C463.051453,47.106762 459.740662,47.106762 456.460999,47.106762 
	C455.360748,51.246578 452.793610,53.595421 448.609589,53.986397 
	C444.456146,54.374516 441.482758,52.322838 440.344421,48.577187 
	C439.369843,45.370247 439.129395,41.860691 439.062775,38.475163 
	C438.950684,32.782551 442.139374,28.249222 447.252167,27.429859 
	C452.126282,26.648739 455.329742,29.381495 456.571259,33.795086 
	C460.267914,33.795086 463.569946,33.795086 466.858002,33.795086 
	C466.858002,32.601479 467.080872,31.550392 466.824188,30.633585 
	C463.626129,19.211679 450.387054,15.269844 439.525452,19.873959 
	C430.694672,23.617233 427.466125,31.224394 427.213135,39.728512 
	C426.958221,48.298828 429.392731,56.392654 437.912079,61.041798 
	C439.119812,61.700874 439.979309,62.998127 441.000000,64.000000 
	C417.312439,64.000000 393.624878,64.000000 369.177185,63.676460 
	C373.008545,59.951698 369.055145,56.504421 368.803009,52.980938 
	C364.645935,54.167667 362.129669,53.152348 362.060089,50.104195 
	C361.886597,42.503750 362.002930,34.896690 362.002930,26.922707 
	C364.872162,26.922707 367.284027,26.922707 369.777039,26.922707 
	C369.777039,24.133659 369.777039,21.726038 369.777039,18.943026 
	C367.150024,18.943026 364.739410,18.943026 361.952393,18.943026 
	C361.952393,15.163829 361.952393,11.743649 361.952393,8.213982 
	C358.158905,8.213982 354.756653,8.213982 350.970825,8.213982 
	C350.970825,11.831798 350.970825,15.244617 350.970825,19.021458 
	C348.515839,19.021458 346.439575,19.021458 344.194397,19.021458 
	C344.194397,21.804615 344.194397,24.212400 344.194397,26.993498 
	C346.455170,26.993498 348.530579,26.993498 351.000000,26.993498 
	C351.000000,34.307426 351.232269,41.265095 350.932922,48.199818 
	C350.648926,54.778957 351.647980,60.306137 358.917938,62.561371 
	C359.078583,62.611210 358.978455,63.501675 359.000000,64.000000 
	C348.979095,64.000000 338.958221,64.000000 328.176178,63.686073 
	C333.082245,60.503571 338.383484,57.285980 339.825623,50.448196 
	C337.763458,49.966194 335.746246,49.204239 333.698364,49.110363 
	C332.134583,49.038689 329.766968,49.290890 329.077911,50.300541 
	C325.929535,54.913872 321.161804,54.779270 317.086853,53.732761 
	C312.900452,52.657623 310.377167,48.949593 310.826691,43.826271 
	C320.439789,43.826271 330.042542,43.826271 340.000000,43.826271 
	C340.000000,41.963516 339.953003,40.340134 340.007965,38.720211 
	C340.266541,31.096512 337.280487,25.059589 330.845428,21.014187 
	C323.581024,16.447422 315.892700,16.878063 308.870789,21.155750 
	C303.059601,24.695885 300.695587,30.538700 299.613495,37.475002 
	C298.137695,46.934860 301.946991,56.553993 310.399200,61.114822 
	C311.472565,61.694016 312.142914,63.020000 313.000000,64.000000 
	C279.645782,64.000000 246.291550,64.000000 212.176208,63.686035 
	C212.204956,62.911732 212.947632,62.323772 213.792236,62.011528 
	C219.786469,59.795471 223.112656,54.970303 223.000015,48.545929 
	C222.906586,43.217003 220.088837,39.994038 213.450394,37.951569 
	C209.331085,36.684162 205.059387,35.869164 201.027374,34.385582 
	C199.736984,33.910789 198.323059,31.994202 198.222733,30.643898 
	C198.147049,29.625305 199.891861,27.846012 201.144318,27.473030 
	C204.712112,26.410543 208.588791,26.309092 211.002930,29.689270 
	C212.788498,32.189350 214.463882,32.496513 217.078705,31.498371 
	C218.556152,30.934395 220.250427,30.938421 222.763519,30.542051 
	C221.571564,28.132000 220.948059,25.706604 219.460785,24.062685 
	C212.453049,16.316929 201.154404,16.059549 193.067184,20.706417 
	C184.062988,25.880169 184.590118,38.797443 194.049667,42.490479 
	C197.908829,43.997112 201.974442,45.460781 206.044693,45.816631 
	C211.012192,46.250923 211.697037,48.608192 210.736130,52.613106 
	C203.095383,56.357998 198.887024,55.337311 196.024475,48.695202 
	C192.791870,49.120773 189.444077,49.561512 185.871460,50.031845 
	C186.325073,56.495914 190.318695,59.524261 195.078629,62.023457 
	C195.851852,62.429436 196.366074,63.328728 197.000000,64.000000 
	C184.645767,64.000000 172.291550,64.000000 159.175995,63.683159 
	C160.987671,61.860558 163.560684,60.354790 166.155487,58.836269 
	C167.708267,62.377098 170.852112,62.970722 177.666901,61.359814 
	C177.666901,47.237885 177.666901,33.169239 177.666901,19.337517 
	C173.919006,19.337517 170.514053,19.337517 166.999985,19.337517 
	C166.999985,27.658882 167.042725,35.643482 166.984848,43.627354 
	C166.946640,48.897041 163.132233,53.012672 158.461868,52.999989 
	C153.673584,52.986984 151.012131,49.657433 151.003021,43.621357 
	C150.990784,35.514591 151.000000,27.407791 151.000000,19.237726 
	C147.116394,19.237726 143.713531,19.237726 140.000000,19.237726 
	C140.000000,29.097326 140.026779,38.722771 139.990753,48.347980 
	C139.965973,54.962353 142.427002,59.846954 149.048996,62.097412 
	C149.526382,62.259659 149.690323,63.344250 150.000000,64.000000 
	C115.979103,64.000000 81.958214,64.000000 47.281639,63.558128 
	C46.625961,53.194767 46.625961,43.273277 46.625961,32.850365 
	C56.287724,32.850365 65.021240,32.850365 73.621445,32.850365 
	C73.621445,22.609158 73.621445,12.883567 73.621445,3.249751 
	C64.301689,3.249751 55.362740,3.249751 45.916294,3.249751 
	C45.916294,12.552980 45.916294,21.619802 45.916294,31.000000 
	C30.604668,31.000000 15.802334,31.000000 1.000000,31.000000 
	C1.000000,21.009951 1.000000,11.019900 1.000000,1.000000 
	C137.354233,1.000000 273.708466,1.000000 410.822937,1.324089 
	C411.384003,1.911165 411.227081,2.225513 410.979279,2.429360 
	C407.658600,5.160778 406.825531,9.292842 409.464233,11.852066 
	C412.034027,14.344398 415.233826,14.169576 418.112030,12.321164 
	C421.417633,10.198295 421.516205,6.956190 418.782623,3.242664 
	C418.334045,2.633294 418.251648,1.754348 418.000000,0.999998 
	C449.583893,1.000000 481.167816,1.000000 512.875854,1.000000 
	C512.875854,21.999498 512.875854,42.999638 512.875854,64.000000 
	C508.592255,64.000000 504.270233,64.000000 499.181641,63.686058 
	C499.205750,62.911743 499.949371,62.324078 500.794739,62.011417 
	C506.791077,59.793533 510.116760,54.961391 509.999969,48.528255 
	C509.903381,43.204319 507.072540,39.973598 500.428345,37.929340 
	C496.305511,36.660866 492.049347,35.801182 487.986908,34.376259 
	C486.761322,33.946384 485.076355,32.101559 485.218353,31.144735 
	C485.424469,29.755470 486.871643,27.872530 488.187988,27.454330 
	C491.963959,26.254721 495.534943,26.830309 498.588104,29.924200 
	C499.700958,31.051868 501.682251,31.783718 503.294922,31.835423 
	C505.141785,31.894640 507.019348,30.996630 509.695892,30.304424 
	C508.572906,28.091347 507.933533,25.628391 506.399445,24.017359 
	C499.927338,17.220606 491.865540,16.540073 483.453552,19.287066 
	C476.402618,21.589565 473.101379,26.575575 473.970856,33.801838 
	C474.562805,38.721336 479.501617,43.039677 485.715179,44.037949 
	C489.046173,44.573109 492.412292,45.223923 495.567841,46.362270 
	C496.949860,46.860809 498.461487,48.584957 498.744232,49.988293 
	C498.932526,50.922760 497.271881,52.631763 496.059479,53.376839 
	C490.818573,56.597672 485.576263,54.765762 483.052124,48.641201 
	C479.758453,49.149155 476.347107,49.675255 472.756134,50.229053 
	C473.548798,56.619850 477.448334,59.576511 482.052338,62.023468 
	C482.831604,62.437641 483.357208,63.329079 484.000000,64.000008 
M247.883957,19.009989 
	C245.766037,20.366323 243.648132,21.722660 241.305939,23.222630 
	C241.069061,21.552811 240.896286,20.334795 240.751740,19.315784 
	C237.304993,19.315784 234.227661,19.315784 231.313828,19.315784 
	C231.313828,33.707920 231.313828,47.782475 231.313828,61.680393 
	C235.044022,61.680393 238.451904,61.680393 242.000015,61.680393 
	C242.000015,52.710182 241.968353,44.058727 242.013016,35.407669 
	C242.036240,30.906887 245.540512,27.601316 249.819839,28.014780 
	C254.127930,28.431021 256.034912,30.952566 256.013550,35.206982 
	C255.968781,44.123051 255.999969,53.039501 255.999969,61.816780 
	C260.006683,61.816780 263.297577,61.816780 266.404205,61.816780 
	C266.693695,61.512905 266.908691,61.392746 266.909302,61.271526 
	C266.950470,52.942493 266.969940,44.613358 267.001587,36.284271 
	C267.024414,30.272890 269.019867,27.952993 274.102814,28.000134 
	C279.095764,28.046442 280.989716,30.364309 280.997375,36.489895 
	C281.007904,44.924675 281.000000,53.359482 281.000000,61.714287 
	C284.976288,61.714287 288.383209,61.714287 291.999512,61.714287 
	C291.999512,51.454025 292.264740,41.468891 291.925781,31.504309 
	C291.578674,21.299763 283.075409,15.638147 273.413910,18.993732 
	C270.203857,20.108629 267.285614,22.063601 264.132690,23.686632 
	C260.105133,18.609455 255.095062,16.459785 247.883957,19.009989 
M128.398315,62.000000 
	C129.875412,62.000000 131.352509,62.000000 132.879944,62.000000 
	C132.879944,60.986137 133.061096,60.268143 132.853531,59.689617 
	C127.338585,44.318634 121.874939,28.928177 116.202446,13.615162 
	C112.577950,3.830753 112.430809,4.081394 103.753227,3.899002 
	C100.458229,3.829745 98.964973,5.162060 98.019196,7.927853 
	C91.866081,25.921696 85.693581,43.908916 79.530800,61.888439 
	C83.534073,61.888439 87.517029,61.888439 91.625343,61.888439 
	C92.773514,58.176178 93.685059,54.437214 95.146049,50.926929 
	C95.670181,49.667614 97.481346,48.194981 98.770195,48.131016 
	C104.735176,47.834980 110.723053,48.000225 116.627846,48.000225 
	C117.486183,50.904545 118.408745,53.479050 118.994270,56.128052 
	C120.026382,60.797421 122.476646,63.178658 128.398315,62.000000 
M389.000031,35.946884 
	C390.040375,29.235088 394.490540,26.819229 402.735413,28.459307 
	C402.735413,25.037695 402.735413,21.612923 402.735413,16.963737 
	C397.450470,18.471010 392.744141,19.813257 388.808777,20.935625 
	C385.297852,17.377195 381.063721,19.730244 377.353851,18.994898 
	C377.353851,33.584763 377.353851,47.759640 377.353851,61.647030 
	C381.451202,61.647030 385.186310,61.647030 389.000000,61.647030 
	C389.000000,53.149101 389.000000,45.003914 389.000031,35.946884 
M420.000000,33.504280 
	C420.000000,28.735708 420.000000,23.967136 420.000000,19.286718 
	C416.020844,19.286718 412.614288,19.286718 409.283264,19.286718 
	C409.283264,33.647068 409.283264,47.718880 409.283264,61.713165 
	C412.979370,61.713165 416.385956,61.713165 420.000000,61.713165 
	C420.000000,52.453144 420.000000,43.478222 420.000000,33.504280 
z"/>
<path fill="#6366E9" opacity="1.000000" stroke="none" 
	d="
M1.000000,31.468658 
	C15.802334,31.000000 30.604668,31.000000 45.916294,31.000000 
	C45.916294,21.619802 45.916294,12.552980 45.916294,3.249751 
	C55.362740,3.249751 64.301689,3.249751 73.621445,3.249751 
	C73.621445,12.883567 73.621445,22.609158 73.621445,32.850365 
	C65.021240,32.850365 56.287724,32.850365 46.625961,32.850365 
	C46.625961,43.273277 46.625961,53.194767 46.812981,63.558128 
	C31.752085,64.000000 16.504168,64.000000 1.000000,64.000000 
	C1.000000,53.313801 1.000000,42.625557 1.000000,31.468658 
z"/>
<path fill="#FFFFFF" opacity="1.000000" stroke="none" 
	d="
M313.466125,64.000000 
	C312.142914,63.020000 311.472565,61.694016 310.399200,61.114822 
	C301.946991,56.553993 298.137695,46.934860 299.613495,37.475002 
	C300.695587,30.538700 303.059601,24.695885 308.870789,21.155750 
	C315.892700,16.878063 323.581024,16.447422 330.845428,21.014187 
	C337.280487,25.059589 340.266541,31.096512 340.007965,38.720211 
	C339.953003,40.340134 340.000000,41.963516 340.000000,43.826271 
	C330.042542,43.826271 320.439789,43.826271 310.826691,43.826271 
	C310.377167,48.949593 312.900452,52.657623 317.086853,53.732761 
	C321.161804,54.779270 325.929535,54.913872 329.077911,50.300541 
	C329.766968,49.290890 332.134583,49.038689 333.698364,49.110363 
	C335.746246,49.204239 337.763458,49.966194 339.825623,50.448196 
	C338.383484,57.285980 333.082245,60.503571 327.707520,63.686073 
	C323.310760,64.000000 318.621490,64.000000 313.466125,64.000000 
M314.034576,29.446117 
	C312.834503,31.373526 311.634460,33.300934 310.034424,35.870705 
	C317.056885,35.870705 322.824585,35.870705 330.376984,35.870705 
	C328.276703,32.910141 327.148895,30.438875 325.269562,28.864883 
	C321.926941,26.065359 318.160309,26.127193 314.034576,29.446117 
z"/>
<path fill="#FFFFFF" opacity="1.000000" stroke="none" 
	d="
M150.449982,64.000000 
	C149.690323,63.344250 149.526382,62.259659 149.048996,62.097412 
	C142.427002,59.846954 139.965973,54.962353 139.990753,48.347980 
	C140.026779,38.722771 140.000000,29.097326 140.000000,19.237726 
	C143.713531,19.237726 147.116394,19.237726 151.000000,19.237726 
	C151.000000,27.407791 150.990784,35.514591 151.003021,43.621357 
	C151.012131,49.657433 153.673584,52.986984 158.461868,52.999989 
	C163.132233,53.012672 166.946640,48.897041 166.984848,43.627354 
	C167.042725,35.643482 166.999985,27.658882 166.999985,19.337517 
	C170.514053,19.337517 173.919006,19.337517 177.666901,19.337517 
	C177.666901,33.169239 177.666901,47.237885 177.666901,61.359814 
	C170.852112,62.970722 167.708267,62.377098 166.155487,58.836269 
	C163.560684,60.354790 160.987671,61.860558 158.707336,63.683159 
	C156.299988,64.000000 153.599976,64.000000 150.449982,64.000000 
z"/>
<path fill="#FFFFFF" opacity="1.000000" stroke="none" 
	d="
M197.466125,64.000000 
	C196.366074,63.328728 195.851852,62.429436 195.078629,62.023457 
	C190.318695,59.524261 186.325073,56.495914 185.871460,50.031845 
	C189.444077,49.561512 192.791870,49.120773 196.024475,48.695202 
	C198.887024,55.337311 203.095383,56.357998 210.736130,52.613106 
	C211.697037,48.608192 211.012192,46.250923 206.044693,45.816631 
	C201.974442,45.460781 197.908829,43.997112 194.049667,42.490479 
	C184.590118,38.797443 184.062988,25.880169 193.067184,20.706417 
	C201.154404,16.059549 212.453049,16.316929 219.460785,24.062685 
	C220.948059,25.706604 221.571564,28.132000 222.763519,30.542051 
	C220.250427,30.938421 218.556152,30.934395 217.078705,31.498371 
	C214.463882,32.496513 212.788498,32.189350 211.002930,29.689270 
	C208.588791,26.309092 204.712112,26.410543 201.144318,27.473030 
	C199.891861,27.846012 198.147049,29.625305 198.222733,30.643898 
	C198.323059,31.994202 199.736984,33.910789 201.027374,34.385582 
	C205.059387,35.869164 209.331085,36.684162 213.450394,37.951569 
	C220.088837,39.994038 222.906586,43.217003 223.000015,48.545929 
	C223.112656,54.970303 219.786469,59.795471 213.792236,62.011528 
	C212.947632,62.323772 212.204956,62.911732 211.707550,63.686035 
	C207.310745,64.000000 202.621490,64.000000 197.466125,64.000000 
z"/>
<path fill="#FFFFFF" opacity="1.000000" stroke="none" 
	d="
M484.466125,64.000008 
	C483.357208,63.329079 482.831604,62.437641 482.052338,62.023468 
	C477.448334,59.576511 473.548798,56.619850 472.756134,50.229053 
	C476.347107,49.675255 479.758453,49.149155 483.052124,48.641201 
	C485.576263,54.765762 490.818573,56.597672 496.059479,53.376839 
	C497.271881,52.631763 498.932526,50.922760 498.744232,49.988293 
	C498.461487,48.584957 496.949860,46.860809 495.567841,46.362270 
	C492.412292,45.223923 489.046173,44.573109 485.715179,44.037949 
	C479.501617,43.039677 474.562805,38.721336 473.970856,33.801838 
	C473.101379,26.575575 476.402618,21.589565 483.453552,19.287066 
	C491.865540,16.540073 499.927338,17.220606 506.399445,24.017359 
	C507.933533,25.628391 508.572906,28.091347 509.695892,30.304424 
	C507.019348,30.996630 505.141785,31.894640 503.294922,31.835423 
	C501.682251,31.783718 499.700958,31.051868 498.588104,29.924200 
	C495.534943,26.830309 491.963959,26.254721 488.187988,27.454330 
	C486.871643,27.872530 485.424469,29.755470 485.218353,31.144735 
	C485.076355,32.101559 486.761322,33.946384 487.986908,34.376259 
	C492.049347,35.801182 496.305511,36.660866 500.428345,37.929340 
	C507.072540,39.973598 509.903381,43.204319 509.999969,48.528255 
	C510.116760,54.961391 506.791077,59.793533 500.794739,62.011417 
	C499.949371,62.324078 499.205750,62.911743 498.707520,63.686058 
	C494.310760,64.000000 489.621490,64.000000 484.466125,64.000008 
z"/>
<path fill="#FFFFFF" opacity="1.000000" stroke="none" 
	d="
M441.464661,64.000000 
	C439.979309,62.998127 439.119812,61.700874 437.912079,61.041798 
	C429.392731,56.392654 426.958221,48.298828 427.213135,39.728512 
	C427.466125,31.224394 430.694672,23.617233 439.525452,19.873959 
	C450.387054,15.269844 463.626129,19.211679 466.824188,30.633585 
	C467.080872,31.550392 466.858002,32.601479 466.858002,33.795086 
	C463.569946,33.795086 460.267914,33.795086 456.571259,33.795086 
	C455.329742,29.381495 452.126282,26.648739 447.252167,27.429859 
	C442.139374,28.249222 438.950684,32.782551 439.062775,38.475163 
	C439.129395,41.860691 439.369843,45.370247 440.344421,48.577187 
	C441.482758,52.322838 444.456146,54.374516 448.609589,53.986397 
	C452.793610,53.595421 455.360748,51.246578 456.460999,47.106762 
	C459.740662,47.106762 463.051453,47.106762 466.351044,47.106762 
	C467.475159,52.734921 463.254395,59.562195 457.278473,61.927990 
	C456.288544,62.319885 455.367767,62.886368 454.707520,63.686081 
	C450.643097,64.000000 446.286194,64.000000 441.464661,64.000000 
z"/>
<path fill="#FFFFFF" opacity="1.000000" stroke="none" 
	d="
M359.454102,64.000000 
	C358.978455,63.501675 359.078583,62.611210 358.917938,62.561371 
	C351.647980,60.306137 350.648926,54.778957 350.932922,48.199818 
	C351.232269,41.265095 351.000000,34.307426 351.000000,26.993498 
	C348.530579,26.993498 346.455170,26.993498 344.194397,26.993498 
	C344.194397,24.212400 344.194397,21.804615 344.194397,19.021458 
	C346.439575,19.021458 348.515839,19.021458 350.970825,19.021458 
	C350.970825,15.244617 350.970825,11.831798 350.970825,8.213982 
	C354.756653,8.213982 358.158905,8.213982 361.952393,8.213982 
	C361.952393,11.743649 361.952393,15.163829 361.952393,18.943026 
	C364.739410,18.943026 367.150024,18.943026 369.777039,18.943026 
	C369.777039,21.726038 369.777039,24.133659 369.777039,26.922707 
	C367.284027,26.922707 364.872162,26.922707 362.002930,26.922707 
	C362.002930,34.896690 361.886597,42.503750 362.060089,50.104195 
	C362.129669,53.152348 364.645935,54.167667 368.803009,52.980938 
	C369.055145,56.504421 373.008545,59.951698 368.708496,63.676460 
	C365.969391,64.000000 362.938812,64.000000 359.454102,64.000000 
z"/>
<path fill="#FFFFFF" opacity="1.000000" stroke="none" 
	d="
M417.562500,0.999998 
	C418.251648,1.754348 418.334045,2.633294 418.782623,3.242664 
	C421.516205,6.956190 421.417633,10.198295 418.112030,12.321164 
	C415.233826,14.169576 412.034027,14.344398 409.464233,11.852066 
	C406.825531,9.292842 407.658600,5.160778 410.979279,2.429360 
	C411.227081,2.225513 411.384003,1.911165 411.291595,1.324089 
	C413.041656,1.000000 415.083344,1.000000 417.562500,0.999998 
z"/>
<path fill="#FFFFFF" opacity="1.000000" stroke="none" 
	d="
M248.286758,18.922279 
	C255.095062,16.459785 260.105133,18.609455 264.132690,23.686632 
	C267.285614,22.063601 270.203857,20.108629 273.413910,18.993732 
	C283.075409,15.638147 291.578674,21.299763 291.925781,31.504309 
	C292.264740,41.468891 291.999512,51.454025 291.999512,61.714287 
	C288.383209,61.714287 284.976288,61.714287 281.000000,61.714287 
	C281.000000,53.359482 281.007904,44.924675 280.997375,36.489895 
	C280.989716,30.364309 279.095764,28.046442 274.102814,28.000134 
	C269.019867,27.952993 267.024414,30.272890 267.001587,36.284271 
	C266.969940,44.613358 266.950470,52.942493 266.909302,61.271526 
	C266.908691,61.392746 266.693695,61.512905 266.404205,61.816780 
	C263.297577,61.816780 260.006683,61.816780 255.999969,61.816780 
	C255.999969,53.039501 255.968781,44.123051 256.013550,35.206982 
	C256.034912,30.952566 254.127930,28.431021 249.819839,28.014780 
	C245.540512,27.601316 242.036240,30.906887 242.013016,35.407669 
	C241.968353,44.058727 242.000015,52.710182 242.000015,61.680393 
	C238.451904,61.680393 235.044022,61.680393 231.313828,61.680393 
	C231.313828,47.782475 231.313828,33.707920 231.313828,19.315784 
	C234.227661,19.315784 237.304993,19.315784 240.751740,19.315784 
	C240.896286,20.334795 241.069061,21.552811 241.305939,23.222630 
	C243.648132,21.722660 245.766037,20.366323 248.286758,18.922279 
z"/>
<path fill="#FFFFFF" opacity="1.000000" stroke="none" 
	d="
M127.937614,62.000000 
	C122.476646,63.178658 120.026382,60.797421 118.994270,56.128052 
	C118.408745,53.479050 117.486183,50.904545 116.627846,48.000225 
	C110.723053,48.000225 104.735176,47.834980 98.770195,48.131016 
	C97.481346,48.194981 95.670181,49.667614 95.146049,50.926929 
	C93.685059,54.437214 92.773514,58.176178 91.625343,61.888439 
	C87.517029,61.888439 83.534073,61.888439 79.530800,61.888439 
	C85.693581,43.908916 91.866081,25.921696 98.019196,7.927853 
	C98.964973,5.162060 100.458229,3.829745 103.753227,3.899002 
	C112.430809,4.081394 112.577950,3.830753 116.202446,13.615162 
	C121.874939,28.928177 127.338585,44.318634 132.853531,59.689617 
	C133.061096,60.268143 132.879944,60.986137 132.879944,62.000000 
	C131.352509,62.000000 129.875412,62.000000 127.937614,62.000000 
M111.042206,32.356262 
	C110.032097,29.153486 109.081741,25.929628 107.964958,22.764496 
	C107.721275,22.073872 106.882919,21.593077 106.318436,21.015648 
	C105.876968,21.547617 105.249115,22.010752 105.023254,22.622345 
	C103.041466,27.988491 101.131371,33.381111 99.190063,38.793682 
	C103.955605,38.793682 108.401093,38.793682 113.237831,38.793682 
	C112.612747,36.674191 112.075340,34.851978 111.042206,32.356262 
z"/>
<path fill="#FFFFFF" opacity="1.000000" stroke="none" 
	d="
M389.000000,36.402805 
	C389.000000,45.003914 389.000000,53.149101 389.000000,61.647030 
	C385.186310,61.647030 381.451202,61.647030 377.353851,61.647030 
	C377.353851,47.759640 377.353851,33.584763 377.353851,18.994898 
	C381.063721,19.730244 385.297852,17.377195 388.808777,20.935625 
	C392.744141,19.813257 397.450470,18.471010 402.735413,16.963737 
	C402.735413,21.612923 402.735413,25.037695 402.735413,28.459307 
	C394.490540,26.819229 390.040375,29.235088 389.000000,36.402805 
z"/>
<path fill="#FFFFFF" opacity="1.000000" stroke="none" 
	d="
M420.000000,34.003792 
	C420.000000,43.478222 420.000000,52.453144 420.000000,61.713165 
	C416.385956,61.713165 412.979370,61.713165 409.283264,61.713165 
	C409.283264,47.718880 409.283264,33.647068 409.283264,19.286718 
	C412.614288,19.286718 416.020844,19.286718 420.000000,19.286718 
	C420.000000,23.967136 420.000000,28.735708 420.000000,34.003792 
z"/>
<path fill="#000000" opacity="1.000000" stroke="none" 
	d="
M314.329102,29.182854 
	C318.160309,26.127193 321.926941,26.065359 325.269562,28.864883 
	C327.148895,30.438875 328.276703,32.910141 330.376984,35.870705 
	C322.824585,35.870705 317.056885,35.870705 310.034424,35.870705 
	C311.634460,33.300934 312.834503,31.373526 314.329102,29.182854 
z"/>
<path fill="#000000" opacity="1.000000" stroke="none" 
	d="
M111.290070,32.693016 
	C112.075340,34.851978 112.612747,36.674191 113.237831,38.793682 
	C108.401093,38.793682 103.955605,38.793682 99.190063,38.793682 
	C101.131371,33.381111 103.041466,27.988491 105.023254,22.622345 
	C105.249115,22.010752 105.876968,21.547617 106.318436,21.015648 
	C106.882919,21.593077 107.721275,22.073872 107.964958,22.764496 
	C109.081741,25.929628 110.032097,29.153486 111.290070,32.693016 
z"/>
</svg>